<?xml version="1.0" encoding="UTF-8"?>
<svg id="Layer_1" data-name="Layer 1" xmlns="http://www.w3.org/2000/svg" viewBox="0 0 257 1084">
  <path
    d="M142.99,357.38v-4.57h-.51v1.07h-5.49c-.52,0-.96.23-1.32.68-.36.45-.54,1.05-.54,1.79,0,.63.14,1.16.43,1.57.29.41.68.73,1.18.94v.08c-.42.06-.78.27-1.08.65-.36.45-.54,1.05-.54,1.79,0,.63.14,1.16.43,1.57s.68.73,1.18.94v.07h-1.41v3.72h.51v-1.38h6.63v1.38h.51v-4.83h-.51v1.11h-3.09c-.67,0-1.27-.09-1.79-.26s-.94-.41-1.25-.71c-.31-.29-.46-.62-.46-.97,0-.51.28-.76.85-.76h5.75v1.16h.51v-4.57h-.51v1.07h-3.35c-.56-.02-1.08-.09-1.54-.25-.53-.18-.94-.41-1.25-.71-.31-.29-.46-.62-.46-.97,0-.51.28-.76.85-.76h5.75v1.16h.51Z"
    fill="currentColor" stroke-width="0" />
  <path
    d="M142.87,344.2c.21-.27.32-.63.32-1.1,0-.79-.38-1.5-1.14-2.12l-.39.34c.22.19.36.34.44.45.08.11.12.21.12.3,0,.11-.04.21-.12.28-.08.07-.17.11-.27.11h-4.95c-.52,0-.94.29-1.27.88-.32.59-.48,1.34-.48,2.24,0,.66.09,1.25.26,1.77.18.52.42.93.72,1.22.31.29.65.44,1.04.44.33,0,.61-.11.83-.32.23-.21.34-.49.34-.82s-.11-.61-.34-.84-.49-.35-.78-.35c-.24,0-.41.06-.52.18-.11.12-.23.18-.38.18-.18,0-.33-.1-.44-.32-.11-.21-.17-.46-.17-.76,0-.35.08-.63.25-.85.17-.22.4-.32.7-.32h1.99c0,.95.1,1.78.31,2.5.21.71.51,1.27.91,1.66.4.39.87.59,1.41.59.58,0,1.04-.22,1.39-.65.35-.43.53-.98.53-1.65,0-.58-.12-1.08-.37-1.5-.24-.42-.51-.74-.81-.94v-.07c.35-.09.63-.27.85-.54ZM142.26,346.11c0,.32-.12.56-.35.72-.23.17-.54.25-.93.25-.6,0-1.05-.2-1.36-.6-.31-.4-.46-.96-.46-1.68h1.34c.52,0,.94.13,1.27.38.32.26.48.56.48.93Z"
    fill="currentColor" stroke-width="0" />
  <path
    d="M142.85,333.04c-.23-.4-.51-.69-.85-.87v-.07h.99v-3.72h-.51v1.38h-12.31v4.03h.51v-1.68h5.64v.07c-.34.18-.62.47-.85.88s-.34.87-.34,1.4c0,.6.17,1.17.5,1.72s.8.99,1.41,1.33,1.31.51,2.12.51,1.51-.17,2.12-.52c.61-.35,1.08-.79,1.41-1.33.33-.54.5-1.12.5-1.72,0-.53-.11-1-.34-1.39ZM142.26,334.83c-.18.19-.51.33-.99.42s-1.18.13-2.09.13-1.62-.04-2.11-.14c-.49-.09-.82-.23-1-.42-.18-.19-.27-.44-.27-.75,0-.57.25-1.03.75-1.4.5-.37,1.29-.55,2.36-.55h.51c1.08,0,1.86.19,2.36.56s.75.84.75,1.41c0,.31-.09.56-.26.75Z"
    fill="currentColor" stroke-width="0" />
  <path
    d="M142.51,318.52c-.46-.63-1.09-1.06-1.87-1.3v.56c.73.33,1.24.74,1.53,1.23.29.49.44,1.04.44,1.64,0,.43-.09.77-.27,1.02-.18.25-.52.42-1.01.53-.49.1-1.2.15-2.12.15-.19,0-.36,0-.53,0v-5.08h-.19c-.69,0-1.29.16-1.79.47-.5.31-.89.74-1.17,1.27-.27.54-.41,1.15-.41,1.83,0,.84.2,1.57.59,2.19.39.62.89,1.1,1.5,1.44s1.24.51,1.9.51c.53,0,1.04-.11,1.53-.32.49-.22.92-.52,1.31-.91.39-.39.69-.84.92-1.36s.34-1.07.34-1.66c0-.85-.23-1.59-.7-2.22ZM137.1,322.2c-.52-.1-.88-.25-1.1-.47s-.32-.5-.32-.85c0-.82.49-1.22,1.46-1.22h1.04v2.66c-.42-.02-.78-.06-1.08-.12Z"
    fill="currentColor" stroke-width="0" />
  <path
    d="M142.92,302.66c-.19-.51-.47-.96-.83-1.35-.36-.39-.79-.7-1.28-.92-.49-.22-1.04-.33-1.64-.33s-1.13.11-1.62.33c-.49.22-.92.53-1.28.92-.36.39-.63.84-.83,1.35-.2.51-.3,1.06-.3,1.65s.1,1.14.3,1.65.48.96.83,1.34c.36.38.78.69,1.28.91s1.03.33,1.62.33,1.15-.11,1.64-.33.92-.52,1.28-.91c.36-.39.64-.83.83-1.34.19-.51.29-1.06.29-1.65s-.1-1.14-.29-1.65ZM142.34,305.26c-.18.23-.52.4-1.01.5-.49.1-1.21.15-2.15.15s-1.66-.05-2.16-.15c-.5-.1-.84-.27-1.02-.5-.18-.23-.27-.55-.27-.94s.09-.71.27-.95c.18-.24.52-.41,1.02-.51.5-.1,1.22-.15,2.16-.15s1.66.05,2.15.15c.49.1.83.27,1.01.51.18.24.27.56.27.95s-.09.71-.27.94Z"
    fill="currentColor" stroke-width="0" />
  <path
    d="M132.3,294.79c.73.31,1.58.46,2.54.46h.66v1.41h.51v-1.41h6.46v1.36h.51v-5.42h-.51v1.72h-6.46v-1.84h-.51v1.84h-3.21c-.7,0-1.18-.13-1.42-.38-.24-.26-.37-.56-.37-.91,0-.37.11-.56.32-.56.1,0,.19.03.25.1.07.07.15.14.26.2.1.07.25.1.44.1.32,0,.56-.11.71-.31.16-.21.24-.45.24-.72,0-.34-.1-.62-.31-.84s-.48-.33-.82-.33c-.44,0-.83.2-1.15.6-.32.4-.49.96-.49,1.66,0,.76.21,1.42.62,1.98.41.56.99.99,1.72,1.3Z"
    fill="currentColor" stroke-width="0" />
  <polygon
    points="130.68 282.09 142.48 282.09 142.48 283.47 142.99 283.47 142.99 278.47 142.48 278.47 142.48 279.75 130.68 279.75 130.44 279.75 130.17 279.75 130.17 283.47 130.68 283.47 130.68 282.09"
    fill="currentColor" stroke-width="0" />
  <path
    d="M138.5,267.44c-.69,0-1.29.16-1.79.47-.5.31-.89.74-1.17,1.28-.27.54-.41,1.15-.41,1.83,0,.84.2,1.57.59,2.19s.89,1.1,1.5,1.45c.61.34,1.24.51,1.9.51.53,0,1.04-.11,1.53-.32s.92-.52,1.31-.91c.39-.39.69-.84.92-1.36s.34-1.07.34-1.66c0-.85-.23-1.59-.7-2.22s-1.09-1.06-1.87-1.3v.56c.73.33,1.24.74,1.53,1.23.29.49.44,1.04.44,1.64,0,.43-.09.77-.27,1.02-.18.25-.52.42-1.01.53-.49.1-1.2.15-2.12.15-.19,0-.36,0-.53,0v-5.08h-.19ZM137.1,272.38c-.52-.1-.88-.25-1.1-.47-.21-.22-.32-.5-.32-.85,0-.82.49-1.22,1.46-1.22h1.04v2.66c-.42-.02-.78-.06-1.08-.12Z"
    fill="currentColor" stroke-width="0" />
  <path
    d="M142.84,259.43c-.24-.41-.68-.77-1.3-1.07l-.24.41c.35.22.6.41.74.59s.21.38.21.6c0,.43-.25.65-.76.65h-5.63v-1.95h-.53v1.95h-2.92v.7c.51.2.98.46,1.41.77.43.31.78.66,1.05,1.04.27.38.43.79.46,1.22h.53v-1.38h5.92c.46,0,.82-.16,1.06-.47.24-.31.37-.81.37-1.49,0-.63-.12-1.16-.37-1.56Z"
    fill="currentColor" stroke-width="0" />
  <path
    d="M142.84,251.12c-.24-.41-.68-.76-1.3-1.07l-.24.41c.35.22.6.41.74.59s.21.38.21.6c0,.43-.25.65-.76.65h-5.63v-1.96h-.53v1.96h-2.92v.7c.51.2.98.46,1.41.77.43.31.78.66,1.05,1.04.27.38.43.79.46,1.22h.53v-1.38h5.92c.46,0,.82-.16,1.06-.47s.37-.81.37-1.49c0-.63-.12-1.16-.37-1.56Z"
    fill="currentColor" stroke-width="0" />
  <path
    d="M142.51,240.64c-.46-.63-1.09-1.06-1.87-1.3v.56c.73.33,1.24.74,1.53,1.23.29.49.44,1.04.44,1.64,0,.43-.09.77-.27,1.02-.18.25-.52.43-1.01.53-.49.1-1.2.15-2.12.15-.19,0-.36,0-.53,0v-5.08h-.19c-.69,0-1.29.16-1.79.47-.5.31-.89.74-1.17,1.27-.27.54-.41,1.15-.41,1.83,0,.84.2,1.57.59,2.19.39.62.89,1.11,1.5,1.45s1.24.51,1.9.51c.53,0,1.04-.11,1.53-.32.49-.21.92-.52,1.31-.91.39-.39.69-.84.92-1.36.23-.52.34-1.07.34-1.66,0-.85-.23-1.59-.7-2.22ZM137.1,244.33c-.52-.1-.88-.25-1.1-.47s-.32-.5-.32-.85c0-.82.49-1.22,1.46-1.22h1.04v2.66c-.42-.02-.78-.06-1.08-.12Z"
    fill="currentColor" stroke-width="0" />
  <path
    d="M135.41,231.13c.19.42.6.82,1.23,1.19v.07h-1.31v3.72h.51v-1.38h6.63v1.38h.51v-4.83h-.51v1.11h-3.81c-.45,0-.87-.09-1.26-.26-.38-.18-.7-.38-.93-.63-.24-.24-.36-.46-.36-.64,0-.06,0-.09.03-.11.02-.02.04-.03.06-.03.06,0,.14.04.24.11.1.07.27.11.49.11.38,0,.67-.13.87-.4.19-.27.29-.56.29-.89,0-.36-.11-.67-.34-.91-.23-.24-.58-.37-1.07-.37s-.88.14-1.15.42c-.27.28-.4.69-.4,1.21,0,.33.09.7.28,1.12Z"
    fill="currentColor" stroke-width="0" />
  <path
    d="M135.34,220.62c-.14.37-.2.82-.2,1.33,0,.88.22,1.57.67,2.05.45.48,1.11.72,1.98.72.58,0,1.04-.12,1.39-.36.35-.24.61-.57.8-1,.19-.42.33-.9.43-1.44.15-.77.31-1.28.5-1.52.19-.24.42-.37.69-.37.33,0,.58.13.74.39s.25.66.25,1.19c0,.83-.18,1.45-.54,1.87-.36.42-.8.69-1.33.8l-.49.1v.56h2.77v-.49l-.66-.25c.26-.29.47-.67.63-1.12.16-.45.24-.93.24-1.43,0-.84-.22-1.51-.66-2.02s-1.11-.76-1.99-.76c-.57,0-1.02.12-1.35.37-.33.24-.6.58-.79.99-.19.42-.35.89-.46,1.41-.11.53-.23.94-.35,1.21-.12.27-.25.45-.38.54-.14.09-.29.14-.46.14-.29,0-.54-.13-.72-.4-.19-.27-.28-.66-.28-1.18,0-.67.14-1.15.42-1.45.28-.3.74-.51,1.38-.64l.26-.05v-.59h-2.47v.44l.56.19c-.24.15-.42.41-.56.78Z"
    fill="currentColor" stroke-width="0" />
  <path
    d="M142.84,205.88c-.24-.41-.68-.77-1.3-1.07l-.24.41c.35.22.6.41.74.59s.21.38.21.6c0,.43-.25.65-.76.65h-5.63v-1.95h-.53v1.95h-2.92v.7c.51.2.98.46,1.41.77.43.31.78.66,1.05,1.04.27.38.43.79.46,1.22h.53v-1.38h5.92c.46,0,.82-.16,1.06-.47.24-.31.37-.81.37-1.49,0-.63-.12-1.16-.37-1.56Z"
    fill="currentColor" stroke-width="0" />
  <path
    d="M130.68,200.92h11.8v1.38h.51v-4.83h-.51v1.1h-3.09c-.67,0-1.27-.09-1.79-.27s-.94-.43-1.25-.74c-.31-.31-.46-.65-.46-1.03,0-.23.07-.41.21-.54.14-.14.41-.2.81-.2h5.58v1.16h.51v-4.57h-.51v1.07h-5.49c-.52,0-.96.23-1.32.68-.36.45-.54,1.05-.54,1.8,0,.65.14,1.18.43,1.61.29.42.68.75,1.18.98v.07h-6.58v3.72h.51v-1.38Z"
    fill="currentColor" stroke-width="0" />
  <path
    d="M136.65,184.36h1.99c0,.95.1,1.79.31,2.5.21.71.51,1.27.91,1.66.4.39.87.59,1.41.59.58,0,1.04-.21,1.39-.65.35-.43.53-.98.53-1.65,0-.58-.12-1.08-.37-1.5-.24-.43-.51-.74-.81-.94v-.07c.35-.09.63-.27.85-.54.21-.27.32-.63.32-1.1,0-.79-.38-1.5-1.14-2.12l-.39.34c.22.19.36.34.44.45s.12.21.12.3c0,.11-.04.21-.12.28s-.17.11-.27.11h-4.95c-.52,0-.94.29-1.27.88-.32.59-.48,1.34-.48,2.24,0,.66.09,1.25.26,1.77.18.52.42.93.72,1.22.31.29.65.44,1.04.44.33,0,.61-.11.83-.32s.34-.49.34-.82-.11-.61-.34-.84c-.23-.23-.49-.35-.78-.35-.24,0-.41.06-.52.18-.11.12-.23.18-.38.18-.18,0-.33-.1-.44-.31s-.17-.46-.17-.76c0-.35.08-.63.25-.85.17-.21.4-.32.7-.32ZM140.5,184.36c.52,0,.94.13,1.27.38.32.25.48.56.48.93,0,.32-.12.56-.35.72s-.54.25-.93.25c-.6,0-1.05-.2-1.36-.59-.31-.4-.46-.96-.46-1.68h1.34Z"
    fill="currentColor" stroke-width="0" />
  <path
    d="M142.84,173.26c-.24-.41-.68-.76-1.3-1.07l-.24.41c.35.22.6.41.74.59s.21.38.21.6c0,.43-.25.65-.76.65h-5.63v-1.95h-.53v1.95h-2.92v.7c.51.2.98.46,1.41.77s.78.66,1.05,1.04c.27.38.43.79.46,1.22h.53v-1.38h5.92c.46,0,.82-.16,1.06-.47s.37-.81.37-1.49c0-.63-.12-1.16-.37-1.56Z"
    fill="currentColor" stroke-width="0" />
  <polygon
    points="143.21 157.21 143.21 156.72 135.85 154.17 135.85 152.93 135.34 152.93 135.34 156.13 135.85 156.13 135.85 154.78 139.81 156.09 139.81 156.16 135.34 158.01 135.34 158.62 139.81 160.27 139.81 160.34 135.85 161.7 135.85 160.7 135.34 160.7 135.34 165.25 135.85 165.25 135.85 164.34 143.21 161.52 143.21 161.02 138.46 159.22 138.46 159.15 143.21 157.21"
    fill="currentColor" stroke-width="0" />
  <path
    d="M133.36,148.22c0-.37-.14-.7-.41-.97s-.59-.41-.95-.41-.7.14-.97.41c-.27.27-.41.6-.41.97s.14.68.41.95c.27.27.59.41.97.41s.68-.14.95-.41.41-.59.41-.95Z"
    fill="currentColor" stroke-width="0" />
  <polygon
    points="142.99 150.63 142.99 145.81 142.48 145.81 142.48 146.91 135.85 146.91 135.61 146.91 135.34 146.91 135.34 150.63 135.85 150.63 135.85 149.26 142.48 149.26 142.48 150.63 142.99 150.63"
    fill="currentColor" stroke-width="0" />
  <polygon
    points="130.68 141.54 142.48 141.54 142.48 142.92 142.99 142.92 142.99 137.92 142.48 137.92 142.48 139.2 130.68 139.2 130.44 139.2 130.17 139.2 130.17 142.92 130.68 142.92 130.68 141.54"
    fill="currentColor" stroke-width="0" />
  <polygon
    points="130.68 133.65 142.48 133.65 142.48 135.03 142.99 135.03 142.99 130.03 142.48 130.03 142.48 131.31 130.68 131.31 130.44 131.31 130.17 131.31 130.17 135.03 130.68 135.03 130.68 133.65"
    fill="currentColor" stroke-width="0" />
  <path
    d="M140.71,121.21l-.49.1v.56h2.77v-.49l-.66-.25c.26-.29.47-.67.63-1.12.16-.45.24-.93.24-1.43,0-.84-.22-1.51-.66-2.02s-1.11-.76-1.99-.76c-.57,0-1.02.12-1.35.37-.33.24-.6.58-.79,1-.19.42-.35.89-.46,1.41-.11.53-.23.94-.35,1.21-.12.27-.25.45-.38.54-.14.09-.29.14-.46.14-.29,0-.54-.13-.72-.4-.19-.27-.28-.66-.28-1.18,0-.67.14-1.15.42-1.45.28-.3.74-.51,1.38-.64l.26-.05v-.59h-2.47v.44l.56.19c-.24.15-.42.41-.56.78-.14.37-.2.82-.2,1.33,0,.88.22,1.57.67,2.05.45.48,1.11.72,1.98.72.58,0,1.04-.12,1.39-.36s.61-.57.8-1c.19-.42.33-.9.43-1.44.15-.77.31-1.28.5-1.52.19-.24.42-.37.69-.37.33,0,.58.13.74.39.16.26.25.66.25,1.19,0,.83-.18,1.45-.54,1.87-.36.42-.8.69-1.33.8Z"
    fill="currentColor" stroke-width="0" />
  <path
    d="M142.45,105.75c-.5-.57-1.17-.97-1.98-1.2v.56c.76.31,1.31.67,1.65,1.1s.51.94.51,1.56c0,.42-.09.76-.27,1.01-.18.26-.51.44-.98.54-.47.11-1.12.16-1.96.16-1.04,0-1.83-.07-2.36-.2-.53-.14-.9-.33-1.09-.58-.19-.25-.29-.54-.29-.87,0-.26.04-.47.14-.62s.22-.23.39-.23c.14,0,.25.04.34.12.09.08.19.16.31.25s.28.13.51.13c.34,0,.61-.11.82-.34.2-.23.31-.52.31-.88,0-.39-.11-.71-.33-.96-.22-.25-.53-.38-.93-.38s-.77.14-1.08.41c-.31.27-.56.63-.74,1.09-.18.45-.27.95-.27,1.5,0,.61.11,1.18.34,1.69s.53.96.92,1.33c.38.38.82.67,1.29.88.48.21.96.31,1.46.31s1.02-.11,1.5-.32c.48-.21.92-.52,1.3-.9s.69-.83.92-1.34c.23-.51.34-1.05.34-1.63,0-.87-.25-1.59-.76-2.17Z"
    fill="currentColor" stroke-width="0" />
  <path
    d="M141.83,93.94h-4.95c-.52,0-.94.29-1.27.88-.32.59-.48,1.34-.48,2.24,0,.66.09,1.25.26,1.77.18.52.42.93.72,1.22.31.29.65.44,1.04.44.33,0,.61-.11.83-.32.23-.21.34-.49.34-.82s-.11-.61-.34-.84-.49-.35-.78-.35c-.24,0-.41.06-.52.18-.11.12-.23.18-.38.18-.18,0-.33-.1-.44-.31-.11-.21-.17-.46-.17-.76,0-.35.08-.63.25-.85.17-.21.4-.32.7-.32h1.99c0,.95.1,1.79.31,2.5.21.71.51,1.27.91,1.66.4.39.87.59,1.41.59.58,0,1.04-.21,1.39-.65.35-.43.53-.98.53-1.65,0-.58-.12-1.08-.37-1.5-.24-.42-.51-.74-.81-.94v-.07c.35-.09.63-.27.85-.54.21-.27.32-.63.32-1.1,0-.79-.38-1.5-1.14-2.12l-.39.34c.22.19.36.34.44.45.08.11.12.21.12.3,0,.11-.04.21-.12.28-.08.07-.17.11-.27.11ZM142.26,97.6c0,.32-.12.56-.35.72s-.54.25-.93.25c-.6,0-1.05-.2-1.36-.59-.31-.4-.46-.96-.46-1.68h1.34c.52,0,.94.13,1.27.38.32.25.48.56.48.93Z"
    fill="currentColor" stroke-width="0" />
  <path
    d="M134.88,88.87c.27.38.43.79.46,1.22h.53v-1.38h5.92c.46,0,.82-.16,1.06-.47s.37-.81.37-1.49c0-.63-.12-1.16-.37-1.56s-.68-.76-1.3-1.07l-.24.41c.35.22.6.41.74.59s.21.38.21.6c0,.43-.25.65-.76.65h-5.63v-1.96h-.53v1.96h-2.92v.7c.51.2.98.46,1.41.77.43.31.78.66,1.05,1.04Z"
    fill="currentColor" stroke-width="0" />
  <path
    d="M134.88,80.55c.27.38.43.79.46,1.21h.53v-1.38h5.92c.46,0,.82-.16,1.06-.47.24-.31.37-.81.37-1.49,0-.63-.12-1.16-.37-1.56s-.68-.76-1.3-1.07l-.24.41c.35.21.6.41.74.59.14.18.21.38.21.6,0,.43-.25.65-.76.65h-5.63v-1.96h-.53v1.96h-2.92v.7c.51.2.98.46,1.41.77s.78.66,1.05,1.04Z"
    fill="currentColor" stroke-width="0" />
  <path
    d="M137.22,72.35c.61.34,1.24.51,1.9.51.53,0,1.04-.11,1.53-.32.49-.21.92-.52,1.31-.91.39-.39.69-.84.92-1.36s.34-1.07.34-1.66c0-.85-.23-1.59-.7-2.22s-1.09-1.06-1.87-1.3v.56c.73.33,1.24.74,1.53,1.23.29.49.44,1.04.44,1.64,0,.43-.09.77-.27,1.02-.18.25-.52.43-1.01.53s-1.2.15-2.12.15c-.19,0-.36,0-.53,0v-5.08h-.19c-.69,0-1.29.16-1.79.47-.5.31-.89.74-1.17,1.28-.27.54-.41,1.15-.41,1.83,0,.84.2,1.57.59,2.19s.89,1.1,1.5,1.45ZM137.14,67.54h1.04v2.66c-.42-.02-.78-.06-1.08-.12-.52-.1-.88-.25-1.1-.47-.21-.21-.32-.5-.32-.85,0-.82.49-1.22,1.46-1.22Z"
    fill="currentColor" stroke-width="0" />
  <path
    d="M136.65,58.07v.07h-1.31v3.72h.51v-1.38h6.63v1.38h.51v-4.83h-.51v1.11h-3.81c-.45,0-.87-.09-1.26-.26-.38-.18-.7-.38-.93-.63-.24-.24-.36-.46-.36-.64,0-.06,0-.09.03-.11.02-.02.04-.03.06-.03.06,0,.14.04.24.11.1.07.27.11.49.11.38,0,.67-.13.87-.4.19-.27.29-.56.29-.89,0-.36-.11-.67-.34-.91-.23-.24-.58-.37-1.07-.37s-.88.14-1.15.42c-.27.28-.4.69-.4,1.21,0,.33.09.7.28,1.12.19.42.6.82,1.23,1.19Z"
    fill="currentColor" stroke-width="0" />
  <path
    d="M212.52,739.08c-1.34-3.15-2.96-5.97-4.87-8.47-1.9-2.49-3.97-4.79-6.21-6.89-1.34-1.31-2.74-2.62-4.2-3.94-1.45-1.31-2.74-2.62-3.86-3.94-2.46-2.89-5.09-5.25-7.89-7.09-2.8-1.83-5.65-3.67-8.56-5.52-1.56-1.05-3.07-1.97-4.53-2.76-1.45-.79-2.96-1.71-4.53-2.76-1.12-.79-2.23-1.51-3.36-2.17-1.12-.65-2.23-1.24-3.36-1.77-.67-.26-1.29-.52-1.85-.79-.56-.26-1.17-.65-1.85-1.18-3.58-2.1-7.1-4.14-10.57-6.11-.24-.14-.49-.28-.73-.42,2.12-.35,4.21-.8,6.27-1.36,3.14-1.05,6.04-2.3,8.73-3.74,2.69-1.44,5.26-3.48,7.72-6.11,2.47-2.36,4.36-5.12,5.71-8.27,1.34-3.15,2.47-6.43,3.36-9.85.67-2.89,1.06-5.84,1.18-8.86.12-3.02.06-6.11-.17-9.26-.45-5.25-1.68-9.98-3.69-14.18-2.01-4.2-5.15-7.74-9.4-10.64-1.34-.79-2.74-1.58-4.2-2.36-1.45-.79-2.96-1.58-4.53-2.36l-5.04-2.36v-.79h2.35c2.69.53,5.43.86,8.22.99,2.8.14,5.54.2,8.22.2,1.79,0,3.58-.2,5.37-.59,1.79-.39,3.58-.85,5.37-1.38.45-.26.95-.52,1.51-.79.56-.26,1.06-.52,1.51-.79.67-.52,1.29-.92,1.85-1.18.56-.26,1.18-.52,1.85-.79,3.14-1.31,5.6-3.28,7.39-5.91,1.79-2.62,3.36-5.52,4.7-8.67,1.12-2.1,1.85-4.39,2.18-6.89.34-2.49.73-5.05,1.17-7.68.23-1.58.34-3.21.34-4.92s-.22-3.35-.67-4.92c-.45-.52-.61-1.18-.5-1.97.12-.79.06-1.44-.17-1.97,0-3.94-1.01-7.49-3.02-10.64-.67-1.31-1.34-2.49-2.01-3.55-.67-1.05-1.34-2.1-2.01-3.15-.45-1.05-1.01-1.9-1.68-2.56-.67-.65-1.23-1.38-1.68-2.17-.67-.79-1.4-1.58-2.18-2.36-.78-.79-1.51-1.58-2.18-2.36-.89-.52-1.73-1.18-2.52-1.97-.78-.79-1.62-1.58-2.52-2.36-1.12-.79-2.29-1.64-3.52-2.56-1.23-.92-2.52-1.77-3.86-2.56-1.12-.52-2.12-1.11-3.02-1.77-.89-.65-1.79-1.24-2.69-1.77-1.56-.79-3.07-1.51-4.53-2.17-1.45-.65-2.85-1.64-4.2-2.96-2.91-3.15-6.49-5.52-10.74-7.09-3.13-1.31-5.48-2.76-7.05-4.33-.95-.87-1.9-1.61-2.84-2.25.05-.04.11-.08.16-.11,2.69-1.83,4.82-3.8,6.38-5.91.45-.79,1.34-1.97,2.69-3.54,2.47-2.62,4.53-5.45,6.21-8.47,1.68-3.02,3.41-6.11,5.2-9.26,1.79-3.41,3.75-6.5,5.88-9.26,2.13-2.76,4.76-4.93,7.89-6.5,1.12.79,2.07,1.84,2.85,3.15.79,1.32,1.4,2.63,1.85,3.94,1.12,2.11,2.13,4.21,3.02,6.3.9,2.1,1.9,4.2,3.02,6.3,1.57,2.63,3.25,4.86,5.04,6.7,2.24,2.36,4.48,3.15,6.71,2.36,2.24-.79,3.81-2.89,4.7-6.3.45-1.58.79-3.15,1.01-4.73.23-1.58.23-3.15,0-4.73,0-1.31-.05-2.76-.17-4.33-.11-1.58-.05-3.02.17-4.33.45-3.67.39-7.35-.17-11.03-.56-3.67-1.29-7.35-2.18-11.03-.45-2.36-1.23-4.46-2.35-6.3-1.12-1.83-2.35-3.67-3.69-5.52-1.34-1.83-3.13-3.15-5.37-3.94-2.46-.79-4.87-1.44-7.22-1.97-2.35-.52-4.75-.39-7.22.39-1.79.53-3.47.33-5.04-.59-1.56-.92-3.13-2.17-4.7-3.74-4.03-4.2-7.33-7.15-9.9-8.86-2.57-1.71-5.09-4-7.55-6.89-1.12-1.05-2.69-2.23-4.7-3.55-2.01-1.31-3.58-2.36-4.7-3.15-1.12-.52-2.12-.46-3.02.2-.89.66-1.34,1.64-1.34,2.95-.22,2.11.45,3.81,2.01,5.12,1.57,1.32,3.3,2.5,5.2,3.54,1.9,1.05,3.53,2.23,4.87,3.55.67.53,1.51,1.18,2.52,1.97,1.01.79,1.85,1.58,2.52,2.36,1.12,1.84,2.85,3.55,5.2,5.12,2.35,1.58,4.09,3.29,5.2,5.12,1.79,2.36,1.9,4.86.34,7.49-.67,1.32-1.45,2.63-2.35,3.94-.89,1.32-1.68,2.63-2.35,3.94-1.79,3.42-3.69,6.57-5.71,9.46-2.01,2.89-4.14,5.78-6.38,8.67-1.79,2.89-3.91,5.32-6.38,7.29-2.46,1.97-4.92,3.74-7.39,5.32-3.13,2.11-6.43,3.61-9.9,4.53-3.47.92-7.1,1.12-10.91.59-1.56-.26-3.02-.46-4.36-.59-1.34-.13-2.69-.33-4.03-.59-.67,0-1.45-.26-2.35-.79-1.79-1.31-3.47-2.43-5.04-3.35-1.56-.92-3.13-1.9-4.7-2.95-3.13-2.1-5.82-5.52-8.06-10.24-1.34-2.89-1.34-5.77,0-8.67.67-1.31,1.4-2.49,2.18-3.54.79-1.05,1.85-1.58,3.19-1.58,1.34-.26,2.69-.33,4.03-.2,1.34.14,2.69.33,4.03.59,3.81.79,6.16,3.29,7.05,7.48.23.53.39,1.05.5,1.58.12.53.28,1.05.5,1.58.45,1.58,1.23,2.36,2.35,2.36.9,0,1.79-.79,2.69-2.36,0-.26.23-.92.67-1.97,1.57-10.24.23-19.83-4.03-28.76-.89-1.58-1.68-2.49-2.35-2.76-1.12-.79-2.29-1.64-3.53-2.56-1.23-.92-2.4-1.64-3.52-2.17-6.26-2.1-11.3-.92-15.11,3.55-2.91,3.42-4.58,7.62-5.04,12.61-.22,1.32-.39,2.7-.5,4.14-.11,1.45-.17,2.83-.17,4.14-.67,5.52-1.06,10.97-1.18,16.35-.11,5.39.39,10.83,1.51,16.35,1.34,8.93,4.14,16.81,8.39,23.64,4.25,7.09,10.07,11.55,17.46,13.39,1.57.52,3.14.92,4.7,1.18,1.57.26,3.14.65,4.7,1.18h3.36l13.09-3.54c.9-.27,1.68-.73,2.35-1.38.67-.66,1.46-1.25,2.35-1.77.51-.34,1-.7,1.49-1.05,1.8,1.33,3.65,2.48,5.56,3.41,2.69,1.32,5.26,2.89,7.72,4.73,1.34.79,2.63,1.58,3.86,2.36,1.23.79,2.52,1.58,3.86,2.36,2.24,1.84,4.48,3.29,6.71,4.33.67.53,1.34.92,2.01,1.18.67.26,1.23.66,1.68,1.18,3.81,2.63,7.55,5.26,11.25,7.88,3.69,2.63,7.33,5.65,10.91,9.06,2.69,2.63,4.93,5.39,6.71,8.27,1.34,2.11,1.85,4.21,1.51,6.3-.34,2.1-1.29,3.81-2.85,5.12-2.01,1.84-4.2,3.42-6.55,4.73-2.35,1.32-4.87,2.11-7.55,2.36-2.46.26-4.81.53-7.05.79-2.23.26-4.47.66-6.71,1.18-1.34,0-2.69.07-4.03.2-1.34.13-2.57-.06-3.69-.59-5.59-.79-10.74-1.05-15.44-.79h-4.7c-1.56,0-3.13-.26-4.7-.79-2.01-.52-4.03-1.05-6.04-1.58-2.01-.52-4.14-1.05-6.38-1.58-1.12-.26-2.18-.52-3.19-.79-1.01-.26-2.07-.52-3.19-.79-1.12-.26-2.12-.52-3.02-.79-.89-.26-1.9-.39-3.02-.39-3.36-.52-6.26-1.44-8.73-2.76-2.46-1.58-4.81-3.08-7.05-4.53-2.23-1.44-4.47-2.96-6.71-4.53-4.47-3.15-8.84-5.65-13.09-7.49-1.34-.26-2.91-1.05-4.7-2.36l-12.09-8.27c-3.13-1.83-6.1-3.61-8.9-5.32-2.8-1.71-5.76-3.48-8.9-5.32-.22,0-.39-.06-.5-.2-.11-.13-.28-.2-.5-.2-1.56-1.58-3.19-2.82-4.87-3.74-1.68-.92-3.41-1.77-5.2-2.56-4.92-2.36-9.62-5.12-14.1-8.27-1.34-1.05-3.13-1.97-5.37-2.76-2.46-.52-4.98-1.11-7.55-1.77-2.57-.65-5.2-1.24-7.89-1.77-4.03-.79-8-.98-11.92-.59-3.91.39-7.44,2.43-10.57,6.11-.45,0-.78.14-1.01.39-1.56,1.58-2.69,3.15-3.36,4.73-.22,1.05-.78,2.63-1.68,4.73-.22.53-.45,1.18-.67,1.97-.22.79-.34,1.45-.34,1.97-.22,3.68-.17,7.16.17,10.44.34,3.29,1.4,6.37,3.19,9.26,0,.26.06.46.17.59.12.14.17.46.17.99.9,2.1,2.35,4.33,4.36,6.7,1.34,1.32,2.63,2.7,3.86,4.14,1.23,1.45,2.52,2.95,3.86,4.53,1.34,1.58,2.47,2.63,3.36,3.15,2.69,2.11,5.43,4.07,8.22,5.91,2.8,1.84,5.76,3.55,8.9,5.12,1.79,1.05,3.52,1.91,5.2,2.56,1.68.66,3.41,1.51,5.2,2.56,2.47,1.32,5.04,2.43,7.72,3.35,2.69.92,5.37,1.77,8.06,2.56,3.36,1.05,6.77,2.11,10.24,3.15,3.47,1.05,6.88,2.36,10.24,3.94,5.15,2.36,10.52,3.68,16.11,3.94.9,0,2.24.26,4.03.79,1.79.53,2.97,1.12,3.52,1.77.56.66.84,2.04.84,4.14v9.46c-.22,5.26-.17,10.38.17,15.36.34,4.99,1.18,10.11,2.52,15.36,1.12,4.47,2.63,8.61,4.53,12.41,1.9,3.81,4.09,7.55,6.55,11.23.45.53.84.92,1.18,1.18.34.26.73.66,1.18,1.18,1.12,1.05,2.35,2.04,3.69,2.96,1.34.92,2.58,1.91,3.69,2.96,2.47,2.1,4.93,3.94,7.39,5.52,2.47,1.58,5.15,3.02,8.06,4.33,2.91,1.32,5.76,2.23,8.56,2.76,2.8.53,5.65,1.05,8.56,1.58,2.23.3,4.43.49,6.61.6.23.21.48.41.78.59.67.53,1.68,1.05,3.02,1.58,2.91,1.32,5.71,2.63,8.39,3.94,2.69,1.32,5.37,2.76,8.06,4.33,2.47,1.58,5.04,3.02,7.72,4.33,2.69,1.32,5.15,3.02,7.39,5.12,2.47,1.05,4.76,2.36,6.88,3.94,2.13,1.58,4.42,3.02,6.88,4.33,2.47,1.32,4.93,3.29,7.39,5.91,2.24,2.89,4.59,5.12,7.05,6.7,2.47,1.32,4.42,3.09,5.88,5.32,1.46,2.23,2.85,4.53,4.2,6.89,2.24,3.94,1.57,6.7-2.01,8.27-4.03,2.1-7.94,3.02-11.75,2.76-3.13,0-6.6-.65-10.41-1.97-3.13-1.05-6.26-1.97-9.4-2.76-3.13-.79-6.26-1.71-9.4-2.76-2.46-1.05-4.92-1.97-7.39-2.76-2.46-.79-5.04-1.44-7.72-1.97-.45,0-.89-.13-1.34-.39-.45-.26-.89-.52-1.34-.79-4.03-1.83-8-3.67-11.92-5.52-3.91-1.83-7.89-3.67-11.92-5.52-1.79-1.05-3.13-1.71-4.03-1.97-3.8-1.05-7.5-2.89-11.08-5.52-3.13-2.1-4.92-.92-5.37,3.55-.22,1.32-.39,2.56-.5,3.74-.11,1.18-.28,2.43-.5,3.74-.45,3.94-.78,7.88-1.01,11.82-.22,3.94.23,8.02,1.34,12.21.9,3.68.67,7.62-.67,11.82-.89,2.1-1.73,3.42-2.52,3.94-.78.53-2.07.53-3.86,0l-3.02-1.18-11.08-5.91c-3.36-2.1-7.16-3.8-11.41-5.12-.45-.26-1.01-.39-1.68-.39s-1.34-.26-2.01-.79c-1.12-.79-2.4-1.31-3.86-1.58-1.45-.26-2.85-.52-4.2-.79-2.23-.52-4.2-.06-5.87,1.38-1.68,1.45-2.74,3.48-3.19,6.11-.45,2.63-.67,5.19-.67,7.68s-.11,5.06-.34,7.68c0,3.94,1.01,6.83,3.02,8.67,1.34,1.32,2.74,2.56,4.2,3.74,1.46,1.18,2.85,2.43,4.2,3.74,1.57,1.32,3.25,2.23,5.04,2.76,1.79.53,3.58,1.05,5.37,1.58,2.47.79,4.98,1.45,7.55,1.97,2.58.53,5.09.66,7.55.39.67,0,1.34.07,2.01.2.67.13,1.46.2,2.35.2,1.57.26,3.14.46,4.7.59,1.57.14,3.14-.06,4.7-.59,2.69-.79,5.26-1.77,7.72-2.95,2.47-1.18,4.36-3.21,5.71-6.11,2.24-.52,4.36-.13,6.38,1.18,1.12.53,2.18,1.18,3.19,1.97,1.01.79,2.07,1.58,3.19,2.36,1.34.79,2.74,1.64,4.2,2.56,1.46.92,2.97,1.91,4.53,2.96l3.02,1.18c.47,0,.89-.09,1.28-.22.92.69,1.84,1.36,2.75,1.99,1.34.92,2.8,1.77,4.36,2.56.67.53,1.4,1.12,2.18,1.77.79.66,1.4,1.25,1.85,1.77,1.12,1.32,2.13,2.5,3.02,3.55.9,1.05,1.79,2.23,2.69,3.54.45.79,1.12,2.36,2.01,4.73.9,2.36,1.57,3.94,2.01,4.73.23,1.05-.34,2.11-1.68,3.15-.45.53-1.12.53-2.01,0-1.12-.52-2.29-.92-3.52-1.18-1.23-.26-2.4-.52-3.52-.79-3.13-.79-6.15-1.38-9.06-1.77-2.91-.39-5.93-.72-9.06-.99-3.36,0-6.71.26-10.07.79-3.36.53-6.71,1.45-10.07,2.76-5.37,1.84-9.85,5.91-13.43,12.21-.89,1.58-1.34,2.89-1.34,3.94-.45,2.89-.39,5.78.17,8.67.56,2.89,1.74,5.39,3.52,7.48.9,1.32,1.74,2.56,2.52,3.74.79,1.18,1.74,2.43,2.85,3.74,1.12,1.32,1.68,3.02,1.68,5.12-.22.79-.34,2.11-.34,3.94,0,2.89.56,5.12,1.68,6.7.45.79.9,1.58,1.34,2.36.45.79,1.01,1.58,1.68,2.36,1.79,2.11,3.52,4.08,5.2,5.91,1.68,1.84,3.75,3.42,6.21,4.73.45.26.84.53,1.18.79.34.27.73.53,1.18.79,2.69,2.1,5.49,3.74,8.39,4.92,1.07.43,2.16.81,3.25,1.15.37.26.74.58,1.11,1.01.9.53,1.79.98,2.69,1.38.9.39,1.79.86,2.69,1.38,3.14,2.1,6.1,4.67,8.9,7.68,2.8,3.02,5.43,6.24,7.89,9.65,1.34,1.58,2.24,2.89,2.69,3.94,1.34,1.84,1.68,3.81,1.01,5.91-.22,0-.39.13-.5.39-.11.26-.39.26-.84,0-1.34,0-2.69-.06-4.03-.2-1.34-.13-2.69-.33-4.03-.59-2.69-.79-5.37-1.38-8.06-1.77-2.69-.39-5.37-.72-8.06-.98-4.25,0-8.5-.13-12.76-.39-4.25-.26-8.61,0-13.09.79-2.23.26-4.36.53-6.38.79-2.01.27-4.14.66-6.38,1.18-.89.27-2.23.92-4.03,1.97-1.79,1.32-3.02,2.96-3.69,4.92-.67,1.97-.56,4.01.34,6.11,1.12,2.89,2.47,5.26,4.03,7.09,3.81,4.73,8.84,8.41,15.11,11.03,1.34.79,2.8,1.18,4.36,1.18,4.7.79,9.29,1.18,13.76,1.18,3.81,0,7.5-.39,11.08-1.18,3.81-.52,7.55-1.38,11.25-2.56,3.69-1.18,7.22-2.95,10.57-5.32,4.03-2.89,8.62-3.28,13.76-1.18,1.12.53,2.35.99,3.69,1.38,1.34.39,2.58.86,3.69,1.38,2.24.79,4.36,1.64,6.38,2.56,2.01.92,4.03,2.17,6.04,3.74.45.53.84.92,1.17,1.18.34.26.73.66,1.18,1.18.9,1.05.79,2.11-.34,3.15-.45.26-.78.39-1.01.39s-.56.14-1.01.39c-2.91.79-5.76,1.71-8.56,2.76-2.8,1.05-5.76,1.84-8.9,2.36-2.69.53-5.42.99-8.22,1.38-2.8.39-5.65.86-8.56,1.38-2.01.53-4.03.79-6.04.79s-4.03.39-6.04,1.18c-1.79.53-3.52.92-5.2,1.18-1.68.26-3.41.39-5.2.39-1.34,0-2.63.07-3.86.2-1.23.14-2.4.33-3.52.59-1.56.53-3.07.79-4.53.79h-4.53c-2.23-.26-4.36-.39-6.38-.39h-6.38c-2.69.26-4.42.53-5.2.79-.78.27-2.18,1.45-4.2,3.55-.45.26-.72.53-.84.79-.11.26-.39.53-.84.79-2.01,2.63-3.24,5.65-3.69,9.06-.67,6.83.9,12.48,4.7,16.94,1.57,2.36,3.47,3.68,5.71,3.94,4.03.79,8.06,1.18,12.09,1.18,4.48,0,8.84.39,13.09,1.18,2.47.26,4.76.66,6.88,1.18,2.13.53,4.42,1.05,6.88,1.58,2.91.53,5.76,1.38,8.56,2.56,2.8,1.18,5.54,2.3,8.22,3.35,6.49,2.63,12.65,6.57,18.46,11.82,2.24,1.32,3.47,3.15,3.69,5.52-1.34,2.1-2.91,3.54-4.7,4.33-1.79.79-3.58,1.45-5.37,1.97-1.12.26-2.12.39-3.02.39s-1.9.26-3.02.79c-3.13.79-6.15,1.32-9.06,1.58-2.91.26-5.93.39-9.06.39-4.03,0-8,.07-11.92.2-3.91.14-7.77.07-11.58-.2-3.36,0-6.66-.13-9.9-.39-3.24-.26-6.43-1.05-9.57-2.36-.22-.26-.67-.39-1.34-.39-3.13-.79-5.87-.2-8.22,1.77-2.35,1.97-3.86,4.79-4.53,8.47-.45,2.89-.45,5.71,0,8.47.45,2.76,1.01,5.58,1.68,8.47,1.79,5.26,4.82,8.27,9.06,9.06l7.05,1.18c3.14.53,6.38.99,9.74,1.38,3.36.39,6.6.86,9.74,1.38,4.48.53,8.9.79,13.26.79s8.79-.13,13.26-.39c1.34,0,2.74-.13,4.2-.39,1.46-.26,2.85-.65,4.2-1.18,2.24-.52,4.42-1.11,6.55-1.77,2.13-.65,4.31-1.24,6.55-1.77,4.03-1.05,7.84-3.87,11.41-8.47,3.58-4.59,5.71-8.99,6.38-13.2.45-3.41.73-6.76.84-10.05.12-3.28.17-6.63.17-10.04.23-7.09-2.46-12.87-8.06-17.33-2.69-2.36-5.31-4.59-7.89-6.7-2.57-2.1-5.42-4.07-8.56-5.91-1.34-1.05-1.9-2.1-1.68-3.15,1.57-1.83,3.81-2.76,6.71-2.76,4.03-.26,7.84-.98,11.41-2.17,3.58-1.18,7.28-2.42,11.08-3.74.67-.26,1.34-.59,2.01-.98s1.34-.85,2.01-1.38c1.57-.79,2.97-1.9,4.2-3.35,1.23-1.44,2.63-2.82,4.2-4.14,1.34-1.05,2.47-3.02,3.36-5.91.67-2.62.9-5.38.67-8.27-.22-1.05-.34-2.1-.34-3.15v-3.54c0-5.77-1.45-10.77-4.36-14.97-3.58-5.25-8.28-9.58-14.1-13-5.82-3.41-11.41-6.04-16.79-7.88-.67-.26-1.29-.59-1.85-.98-.56-.39-1.17-.85-1.85-1.38-2.69-1.58-4.14-4.07-4.36-7.49-.45-1.31-.84-2.62-1.18-3.94-.34-1.31-.95-2.49-1.85-3.54-1.12-1.31-2.07-2.62-2.85-3.94-.78-1.31-1.73-2.62-2.85-3.94-1.12-1.83-2.4-3.48-3.86-4.93-1.45-1.44-3.07-2.56-4.87-3.35-.33-.39-.75-.74-1.21-1.06,2.64.22,5.29.44,7.93.67,1.57.26,3.36,0,5.37-.79,1.12-.53,2.3-1.05,3.53-1.58,1.23-.52,2.52-1.05,3.86-1.58,1.79-.79,3.36-1.97,4.7-3.55,2.91-3.41,5.26-7.02,7.05-10.83,1.79-3.8,2.58-8.08,2.35-12.8v-11.62c0-1.71-.11-3.15-.34-4.33-.22-1.18-.45-2.29-.67-3.35-.22-1.05-.56-2.49-1.01-4.33-1.56-6.04-4.92-11.03-10.07-14.97-1.34-1.05-2.35-1.71-3.02-1.97-1.56-1.31-2.63-2.82-3.19-4.53-.56-1.71-1.06-3.74-1.51-6.11-.22-.79-.67-2.36-1.34-4.73-.67-2.36-1.23-3.94-1.68-4.73-3.8-8.4-9.51-14.97-17.12-19.7-1.12-.79-2.29-1.51-3.53-2.17-1.23-.65-2.4-1.24-3.52-1.77l-1.92-.75c-.23-.15-.48-.29-.77-.43-2.01-1.31-3.91-2.36-5.71-3.15-1.79-1.05-3.02-1.83-3.69-2.37-1.79-1.31-3.52-2.49-5.2-3.54-1.68-1.05-3.41-2.23-5.2-3.55-1.79-1.05-2.91-3.02-3.36-5.91-.22-2.1-.45-4.2-.67-6.3-.22-2.1-.56-4.2-1.01-6.3,0-.79-.05-1.51-.17-2.17-.11-.65.17-1.24.84-1.77.67-.52,1.29-.72,1.85-.59.56.14,1.18.33,1.85.59.9.26,1.79.79,2.69,1.58.45.26.84.53,1.17.79.34.27.73.53,1.18.79,4.7,1.58,9.4,3.81,14.1,6.7.45.53.9.79,1.34.79s.9.14,1.34.39l7.05,2.36c2.47,1.05,4.82,2.04,7.05,2.96,2.24.92,4.59,1.77,7.05,2.56,4.03,1.32,8.11,2.56,12.25,3.74,4.14,1.18,8.23,2.17,12.25,2.95,1.34.27,2.74.53,4.2.79,1.46.26,2.74.39,3.86.39,4.93-.52,9.52-1.31,13.76-2.36,1.12,0,2.35-.52,3.69-1.58,2.47-2.36,4.42-5.05,5.88-8.08,1.46-3.02,2.18-6.5,2.18-10.44,0-1.05.23-2.62.67-4.73.67-7.35-.22-13.92-2.69-19.7ZM195.4,465.67c.67,1.32,1.01,2.63,1.01,3.94s-.78,2.63-2.35,3.94c-1.34-.52-2.35-1.44-3.02-2.76-.67-1.31-1.45-2.62-2.35-3.94-1.79-2.89-2.91-4.99-3.36-6.3-.45-1.31-.67-2.89-.67-4.73,4.7,2.11,8.28,5.39,10.74,9.85ZM78.23,559.03c-1.12-.26-2.18-.46-3.19-.59-1.01-.13-2.07-.46-3.19-.99-2.69-.79-5.31-1.38-7.89-1.77-2.57-.39-5.2-.85-7.89-1.38-3.13-.52-6.15-1.11-9.06-1.77-2.91-.65-5.93-1.64-9.06-2.96-.89-.52-1.73-.85-2.52-.98-.78-.13-1.62-.46-2.52-.99h-1.34c-3.8-2.1-7.77-3.55-11.92-4.33-4.14-.79-8.11-2.23-11.92-4.33-1.12-.79-2.35-1.51-3.69-2.17-1.34-.65-2.69-1.38-4.03-2.17-2.46-1.83-4.92-3.41-7.39-4.73-2.46-1.31-5.04-2.62-7.72-3.94-2.01-1.05-4.14-2.62-6.38-4.73-.67-.79-1.9-1.71-3.69-2.76-1.79-1.58-2.01-3.41-.67-5.52.9-1.83,2.69-3.15,5.37-3.94,6.94-1.83,13.88-.79,20.81,3.15,2.47,1.58,4.93,2.89,7.39,3.94,2.47,1.05,5.04,1.97,7.72,2.76,2.24.53,4.14,1.45,5.71,2.76,2.24,1.84,4.59,3.35,7.05,4.53,2.47,1.18,4.93,2.43,7.39,3.74,1.79.79,3.47,1.71,5.04,2.76,1.57,1.05,3.14,2.23,4.7,3.55,1.79,1.32,3.64,2.63,5.54,3.94,1.9,1.32,3.75,2.63,5.54,3.94,2.01,1.58,4.09,2.96,6.21,4.14,2.13,1.18,4.31,2.3,6.55,3.35,1.79.79,3.41,1.77,4.87,2.96,1.46,1.18,2.97,2.3,4.53,3.35,0,.26-.05.46-.17.59-.11.14-.17.33-.17.59ZM122.21,647.87c-.89-.13-1.9-.46-3.02-.98h-2.01c-2.01-.52-4.08-1.12-6.21-1.77-2.12-.65-4.2-1.38-6.21-2.17-1.12-.26-2.57-.92-4.36-1.97-1.12-.79-2.29-1.58-3.52-2.36-1.23-.79-2.4-1.71-3.52-2.76-2.69-2.1-5.2-4.46-7.55-7.09-2.35-2.62-4.42-5.64-6.21-9.06-1.56-3.41-1.56-7.09,0-11.03,3.14-7.09,8.17-9.98,15.11-8.67,2.91.53,5.76.92,8.56,1.18,2.8.27,5.65.39,8.56.39,1.34,0,2.69.13,4.03.39,1.34.26,2.69.66,4.03,1.18,2.47.79,4.82,1.38,7.05,1.77,2.24.39,4.59.86,7.05,1.38,2.47.53,4.59,1.32,6.38,2.36,3.58,1.84,6.83,3.29,9.74,4.33,2.47.53,4.59,1.45,6.38,2.76,1.79,1.32,3.58,2.76,5.37,4.33.9.53,1.63,1.18,2.18,1.97.56.79,1.18,1.45,1.85,1.97,1.34,1.05,2.35,2.76,3.02,5.12.9,2.36.67,4.73-.67,7.09-1.79,2.63-3.69,4.92-5.71,6.89-2.01,1.97-4.47,3.35-7.39,4.14-2.46.53-4.87,1.12-7.22,1.77-2.35.66-4.98.73-7.89.2-.45,0-1.18.07-2.18.2-1.01.13-2.07.2-3.19.2-3.13,0-6.26-.39-9.4-1.18-1.12-.26-2.12-.46-3.02-.59ZM69.5,770.99c-3.36-.79-6.6-2.23-9.74-4.33-.67-.52-1.34-.85-2.01-.99-.67-.13-1.34-.46-2.01-.98-.45-.52-.84-.92-1.18-1.18-.34-.26-.72-.65-1.18-1.18v-.79l.67-.79c.45,0,.79.13,1.01.39,3.81,1.32,7.55,2.7,11.25,4.14,3.69,1.45,7.44,3.22,11.25,5.32.45.26.84.59,1.18.98s.95.86,1.85,1.38c-4.03-.52-7.72-1.18-11.08-1.97ZM146.72,958.9c-1.56.53-3.02,1.05-4.36,1.58-1.34.53-2.8,1.05-4.36,1.58-2.23,1.05-4.47,1.58-6.71,1.58s-4.58-.13-7.05-.39c-1.34-.26-2.74-.46-4.2-.59-1.45-.13-2.85-.2-4.2-.2-5.37-.26-10.63-2.36-15.78-6.3l-.67-1.58c.45-.52.9-.79,1.34-.79,2.24-.26,4.48-.59,6.71-.99,2.24-.39,4.59-.59,7.05-.59,4.93-.52,9.79-.46,14.6.2,4.82.66,9.79,1.25,14.94,1.77,1.79,0,3.36.66,4.7,1.97,0,1.58-.67,2.5-2.01,2.76ZM161.49,848.99c1.34-2.89,3.14-3.41,5.37-1.58,2.69,1.84,5.15,4.47,7.39,7.88,1.57,2.89,1.57,6.04,0,9.46-.45,1.05-.78,1.71-1.01,1.97-2.69,2.63-5.42,4.86-8.22,6.7-2.8,1.84-6.1,2.5-9.9,1.97-2.69-.52-5.54-.72-8.56-.59-3.02.14-6.1-.46-9.23-1.77.45-.52.79-.85,1.01-.99.23-.13.56-.33,1.01-.59,1.34-1.05,2.69-2.03,4.03-2.96,1.34-.92,2.69-1.77,4.03-2.56.45-.52.79-.79,1.01-.79,3.14-1.31,5.65-3.48,7.55-6.5,1.9-3.02,3.75-6.24,5.54-9.65ZM151.42,852.53c-1.79,1.84-3.69,3.68-5.71,5.52-2.91,2.36-5.99,4.08-9.23,5.12-3.24,1.05-6.55,1.84-9.9,2.36-2.69.79-5.15.13-7.39-1.97-1.79-1.31-3.58-2.62-5.37-3.94-1.79-1.31-3.58-2.89-5.37-4.73-1.56-1.83-2.8-1.58-3.69.79l-2.01,3.55c-.45-.52-.67-.65-.67-.39-1.79-.52-2.8-1.64-3.02-3.35-.22-1.71-.56-3.35-1.01-4.92-.67-2.62-.22-5.12,1.34-7.49,2.91-4.2,6.83-7.09,11.75-8.67,2.24-.52,4.48-.79,6.71-.79s4.48-.13,6.71-.39h1.01c2.47,1.32,5.04,1.91,7.72,1.77,2.69-.13,5.26-.06,7.72.2,2.24.27,4.36.86,6.38,1.77,2.01.92,3.92,2.04,5.71,3.35.67.53,1.12,1.05,1.34,1.58.23.53.67,1.84,1.34,3.94-1.12,2.63-2.57,4.86-4.36,6.7Z"
    fill="currentColor" stroke-width="0" />
</svg>