<?xml version="1.0" encoding="UTF-8"?>
<svg id="Layer_1" data-name="Layer 1" xmlns="http://www.w3.org/2000/svg" width="200" height="200" viewBox="0 0 200 200">
  <path d="M11.77,109.67c-.48-1.21-.83-2.46-1.06-3.78-.24-1.31-.35-2.57-.35-3.77-.24-4.02-.35-8-.35-11.93s.23-7.9.71-11.93c.47-2.81.89-5.74,1.24-8.75.35-3.02.76-5.94,1.24-8.76l1.06-6.34c.71-3.82,3.42-6.54,8.15-8.15,2.6-.6,5.14-1.1,7.62-1.51,2.48-.4,5.02-.4,7.62,0,3.31.6,5.85,1.96,7.62,4.08,1.77,2.11,2.3,4.58,1.59,7.4,0,.6-.12,1.01-.35,1.21-1.18,2.82-1.89,5.69-2.13,8.6-.24,2.92-.35,5.89-.35,8.91-.24,3.42-.3,6.9-.18,10.42.12,3.52.18,7.09.18,10.72,0,2.82.12,5.54.35,8.15.23,2.62.71,5.34,1.42,8.15.47,1.01.71,1.92.71,2.72s.12,1.71.35,2.72c.47,1.61,1.06,3.22,1.77,4.83.71,1.61,2,3.02,3.9,4.23,2.13-.2,3.78-1.31,4.96-3.32,4.72-5.23,8.27-10.77,10.63-16.61.94-2.42,1.95-4.88,3.01-7.4,1.06-2.51,1.83-5.08,2.3-7.7.47-2.21.94-4.27,1.42-6.19.47-1.91.83-3.97,1.06-6.19.71-3.82,1.06-7.75,1.06-11.77,0-3.62.35-7.25,1.06-10.87.23-2.01,1.42-3.72,3.54-5.13,4.01-3.42,9.09-4.83,15.24-4.23,3.07.41,5.79,1.51,8.15,3.32.23.41.47.66.71.75.23.1.47.35.71.76,1.89,1.81,2.95,3.07,3.19,3.77.23.71.47,2.27.71,4.68v5.74c0,1.81-.12,3.73-.35,5.74v4.08c0,1.31.23,2.67.71,4.08.23,1.01.41,2.07.53,3.17.12,1.11.18,2.26.18,3.47,0,1.61.12,3.17.35,4.68.23,1.51.59,3.07,1.06,4.68.71,1.81,1.06,3.62,1.06,5.44s.23,3.62.71,5.44c.47,2.62.89,5.18,1.24,7.7.35,2.52.76,4.98,1.24,7.4.47,2.82,1.18,5.49,2.13,8,.94,2.52,1.77,5.09,2.48,7.7.23.41.35.71.35.91s.12.5.35.91c.94,1.01,1.89,1.11,2.83.3.47-.4.83-.75,1.06-1.06.23-.3.59-.65,1.06-1.06,1.42-1.81,2.54-3.62,3.37-5.44.83-1.81,1.59-3.72,2.3-5.74.47-1,.89-2.11,1.24-3.32.35-1.21.76-2.31,1.24-3.32,1.89-4.63,1.53-8.75-1.06-12.38-2.13-3.02-3.72-6.19-4.78-9.51-1.06-3.32-1.83-6.69-2.3-10.11-.71-3.22-1.06-6.54-1.06-9.96,0-4.02.35-8.15,1.06-12.38,0-1.41.35-2.72,1.06-3.93,2.36-5.63,5.67-10.16,9.92-13.59,1.65-1.41,3.78-2.61,6.38-3.62,1.89-.8,3.72-.91,5.49-.3s3.24,1.71,4.43,3.32c.94,1.61,1.53,2.82,1.77,3.62.47,2.01.83,3.93,1.06,5.74.23,1.81.47,3.73.71,5.74.71,4.03.94,7.95.71,11.77-.24,3.83-.35,7.65-.35,11.47-.24,2.42-.53,4.83-.89,7.25-.35,2.42-.89,4.83-1.59,7.25-.24,1.21-.41,2.42-.53,3.62-.12,1.21-.18,2.42-.18,3.62-.24.41-.24.66,0,.75.23.1.35.26.35.45,1.89.6,3.66.3,5.32-.91.94-.4,2.13-1.21,3.54-2.42,3.07-2.21,5.96-4.58,8.68-7.09,2.71-2.51,5.02-5.18,6.91-8,.47-.8.89-1.61,1.24-2.42.35-.8.76-1.61,1.24-2.42.47-.4.83-.8,1.06-1.21.23-.4.59-.8,1.06-1.21.71-1,1.6-1.36,2.66-1.06,1.06.3,1.83.96,2.3,1.96.47,1.01.47,2.01,0,3.02-1.19,1.61-2.19,3.32-3.01,5.13-.83,1.81-2.19,3.52-4.07,5.13-.48.6-.89,1.21-1.24,1.81-.35.6-.77,1.11-1.24,1.51-.71,1.61-1.72,3.07-3.01,4.38-1.3,1.31-2.78,2.47-4.43,3.47-1.19,1.01-2.36,1.86-3.54,2.57-1.18.71-2.36,1.56-3.54,2.57-.95.81-2.01,1.36-3.19,1.66-1.18.3-2.36.66-3.54,1.06-3.07.2-5.32,1.51-6.73,3.93-.48.6-.89,1.16-1.24,1.66-.35.5-.65,1.06-.89,1.66-1.66,4.83-4.02,9.87-7.09,15.1-3.07,5.24-6.97,9.46-11.69,12.68-3.78,2.62-8.27,3.93-13.46,3.93h-3.19c-.95,0-1.89.1-2.83.3-2.6.2-5.08,0-7.44-.6-2.6-.8-4.37-1.81-5.32-3.02-1.18-1.41-2.43-2.66-3.72-3.77-1.3-1.11-2.3-2.36-3.01-3.78-.48-.6-.89-1.21-1.24-1.81-.35-.6-.65-1.21-.89-1.81-1.18-3.42-2.3-6.74-3.37-9.96-1.06-3.22-1.72-6.64-1.95-10.27,0-2.61-.83-4.63-2.48-6.04-.95-.2-1.89.3-2.83,1.51-1.66,2.82-3.43,5.39-5.32,7.7-1.89,2.32-3.9,4.68-6.02,7.09-4.02,5.03-9.21,7.45-15.59,7.25-3.07,0-6.08-.05-9.04-.15-2.96-.1-5.97-.35-9.04-.76-3.78-.6-7.74-2.51-11.87-5.74-4.14-3.22-6.68-6.64-7.62-10.27-.48-2.01-1.01-3.97-1.59-5.89-.59-1.91-1.12-3.87-1.59-5.89ZM134.37,90.04c.47,1.41.94,2.72,1.42,3.93.47,1.21.94,2.52,1.42,3.93.23,1.21,1.06,1.81,2.48,1.81,1.18-1.21,1.77-2.61,1.77-4.23.47-4.63,1-9.1,1.59-13.44.59-4.33.65-8.71.18-13.13,0-2.21-.18-4.33-.53-6.34-.35-2.01-.65-4.02-.89-6.04,0-.4-.24-.8-.71-1.21l-1.42.6c-3.54,4.63-5.44,9.36-5.67,14.19,0,1.21-.06,2.47-.18,3.77-.12,1.31-.3,2.57-.53,3.77-.24,2.22-.35,4.33-.35,6.34s.47,4.03,1.42,6.04Z" fill="#37c7ea" stroke-width="0"/>
</svg>